<svg width="150" height="150" viewBox="0 0 150 150" fill="none" xmlns="http://www.w3.org/2000/svg">
<path fill-rule="evenodd" clip-rule="evenodd" d="M75 140.625C38.7563 140.625 9.375 111.244 9.375 75C9.375 38.7563 38.7563 9.375 75 9.375C111.244 9.375 140.625 38.7563 140.625 75C140.625 111.244 111.244 140.625 75 140.625ZM111.353 121.875C110.825 121.097 110.29 120.324 109.747 119.556C108.881 118.325 108.016 117.094 107.241 115.875C107.203 115.819 102.922 110.075 87.5 109.375C82.1344 109.375 78.2344 105.35 78.225 99.7937L78.125 96.875C78.125 96.4531 78.075 97.3375 78.125 96.875V93.75L81.25 90.625C83.5344 89.5656 86.4375 87.7844 88.7344 86.05L89.1562 85.7594C90.9719 84.6063 93.5094 82.1781 93.75 81.25L93.8625 80.0594C95.0281 74.05 96.875 63.1188 96.875 59.375C96.875 44.6562 89.7188 37.5 75 37.5C60.0781 37.5 53.125 44.45 53.125 59.375C53.125 63.2188 54.9719 74.0969 56.1344 80.05L56.2437 81.15C56.4406 82.1281 58.7406 84.4437 60.7719 85.7188L61.0781 85.9125C63.5406 87.6344 66.4844 89.5531 68.75 90.625L71.875 93.75V96.875C71.9188 97.3063 71.875 96.4187 71.875 96.875L71.7719 99.7937C71.7719 105.341 67.8781 109.369 62.7625 109.369H62.7531C47.2656 109.997 42.775 115.859 42.7687 115.859C41.9813 117.097 41.1187 118.325 40.2469 119.559C39.7562 120.259 39.1375 121.153 38.6438 121.875C48.6969 129.681 61.2844 134.375 74.9969 134.375C88.7094 134.375 101.3 129.681 111.353 121.875ZM75 15.625C42.2094 15.625 15.625 42.2094 15.625 75C15.625 91.8313 22.6563 106.991 33.9063 117.794C35.1 116.028 36.375 114.266 37.5 112.5C37.5 112.5 42.7188 103.928 62.5 103.125C64.5156 103.125 65.5219 101.806 65.5219 99.7937H65.525L65.5219 96.875C65.5219 96.4688 65.4563 96.1031 65.4375 95.7094C62.6662 94.3789 60.012 92.8172 57.5031 91.0406C57.5031 91.0406 50.0031 86.4281 50.0031 81.25C50.0031 81.25 46.8781 65.2625 46.8781 59.375C46.8781 44.8625 53.0844 31.25 75.0031 31.25C96.6281 31.25 103.128 44.8625 103.128 59.375C103.128 65.1188 100.003 81.25 100.003 81.25C100.003 86.2844 92.5031 91.0406 92.5031 91.0406C90.0351 92.9313 87.3708 94.5511 84.5563 95.8719C84.5406 96.2125 84.4844 96.525 84.4844 96.875L84.4813 99.7937H84.4844C84.4781 101.806 85.4844 103.125 87.5 103.125C107.575 104.025 112.5 112.5 112.5 112.5C113.625 114.266 114.897 116.028 116.091 117.794C127.341 106.991 134.375 91.8313 134.375 75C134.375 42.2094 107.791 15.625 75 15.625Z" fill="#0B2A34"/>
</svg>
