<svg width="155" height="61" viewBox="0 0 155 61" fill="none" xmlns="http://www.w3.org/2000/svg">
<path d="M15.825 48.61C13.9137 48.61 12.0633 48.1627 10.274 47.268C8.52533 46.3733 7.163 45.1737 6.187 43.669L6.553 41.9V60.139H0.941V22.38H5.821L6.614 28.846L6.004 27.077C7.224 25.5317 8.76933 24.2507 10.64 23.234C12.5107 22.2173 14.605 21.709 16.923 21.709C19.2817 21.709 21.3963 22.2783 23.267 23.417C25.1783 24.5557 26.683 26.1417 27.781 28.175C28.879 30.2083 29.428 32.5873 29.428 35.312C29.428 38.0367 28.8383 40.3953 27.659 42.388C26.4797 44.3807 24.853 45.926 22.779 47.024C20.7457 48.0813 18.4277 48.61 15.825 48.61ZM14.727 44.096C16.3537 44.096 17.838 43.73 19.18 42.998C20.5627 42.2253 21.6607 41.1883 22.474 39.887C23.2873 38.545 23.694 37.0403 23.694 35.373C23.694 33.665 23.3077 32.1603 22.535 30.859C21.7623 29.517 20.7253 28.4597 19.424 27.687C18.1633 26.9143 16.74 26.528 15.154 26.528C13.69 26.528 12.3683 26.8127 11.189 27.382C10.0097 27.9513 9.03367 28.7443 8.261 29.761C7.48833 30.737 6.93933 31.8757 6.614 33.177V37.386C6.81733 38.6873 7.30533 39.8463 8.078 40.863C8.85067 41.8797 9.80633 42.6727 10.945 43.242C12.1243 43.8113 13.385 44.096 14.727 44.096ZM34.9042 35.129C34.9042 32.6077 35.4938 30.3303 36.6732 28.297C37.8932 26.2637 39.5605 24.6573 41.6752 23.478C43.7898 22.2987 46.1892 21.709 48.8732 21.709C51.6385 21.709 54.0582 22.2987 56.1322 23.478C58.2062 24.6573 59.8125 26.2637 60.9512 28.297C62.0898 30.3303 62.6592 32.6077 62.6592 35.129C62.6592 37.6503 62.0898 39.948 60.9512 42.022C59.8125 44.0553 58.1858 45.6617 56.0712 46.841C53.9972 48.0203 51.5775 48.61 48.8122 48.61C46.1282 48.61 43.7288 48.061 41.6142 46.963C39.5402 45.8243 37.8932 44.2587 36.6732 42.266C35.4938 40.2327 34.9042 37.8537 34.9042 35.129ZM40.5772 35.19C40.5772 36.8167 40.9432 38.301 41.6752 39.643C42.4072 40.9443 43.3832 41.9813 44.6032 42.754C45.8638 43.5267 47.2465 43.913 48.7512 43.913C50.3372 43.913 51.7402 43.5267 52.9602 42.754C54.2208 41.9813 55.1968 40.9443 55.8882 39.643C56.5795 38.301 56.9252 36.8167 56.9252 35.19C56.9252 33.5633 56.5795 32.0993 55.8882 30.798C55.1968 29.456 54.2208 28.3987 52.9602 27.626C51.7402 26.8127 50.3372 26.406 48.7512 26.406C47.2058 26.406 45.8028 26.8127 44.5422 27.626C43.3222 28.4393 42.3462 29.517 41.6142 30.859C40.9228 32.1603 40.5772 33.604 40.5772 35.19ZM70.3404 0.785997H76.0134V48H70.3404V0.785997ZM85.8287 22.746H91.5017V48H85.8287V22.746ZM85.4017 13.596C85.4017 12.7013 85.7474 11.949 86.4387 11.339C87.1707 10.729 87.9637 10.424 88.8177 10.424C89.6717 10.424 90.424 10.729 91.0747 11.339C91.766 11.949 92.1117 12.7013 92.1117 13.596C92.1117 14.5313 91.766 15.304 91.0747 15.914C90.424 16.4833 89.6717 16.768 88.8177 16.768C87.9637 16.768 87.1707 16.463 86.4387 15.853C85.7474 15.243 85.4017 14.4907 85.4017 13.596ZM121.813 45.682C120.674 46.5767 119.312 47.2883 117.726 47.817C116.14 48.3457 114.554 48.61 112.968 48.61C110.203 48.61 107.783 48.061 105.709 46.963C103.635 45.865 102.008 44.34 100.829 42.388C99.6903 40.3953 99.121 38.057 99.121 35.373C99.121 32.689 99.731 30.3507 100.951 28.358C102.212 26.3653 103.838 24.8403 105.831 23.783C107.864 22.685 110.04 22.136 112.358 22.136C114.391 22.136 116.201 22.4207 117.787 22.99C119.414 23.5593 120.796 24.332 121.935 25.308L119.129 28.968C118.397 28.3987 117.502 27.8903 116.445 27.443C115.388 26.9957 114.188 26.772 112.846 26.772C111.382 26.772 110.02 27.1583 108.759 27.931C107.539 28.663 106.563 29.6797 105.831 30.981C105.14 32.2823 104.794 33.7463 104.794 35.373C104.794 36.9183 105.16 38.362 105.892 39.704C106.624 41.0053 107.641 42.0423 108.942 42.815C110.243 43.547 111.728 43.913 113.395 43.913C114.493 43.913 115.489 43.7503 116.384 43.425C117.319 43.0997 118.153 42.6523 118.885 42.083L121.813 45.682ZM126.94 35.129C126.94 32.6077 127.53 30.3303 128.709 28.297C129.929 26.2637 131.597 24.6573 133.711 23.478C135.826 22.2987 138.225 21.709 140.909 21.709C143.675 21.709 146.094 22.2987 148.168 23.478C150.242 24.6573 151.849 26.2637 152.987 28.297C154.126 30.3303 154.695 32.6077 154.695 35.129C154.695 37.6503 154.126 39.948 152.987 42.022C151.849 44.0553 150.222 45.6617 148.107 46.841C146.033 48.0203 143.614 48.61 140.848 48.61C138.164 48.61 135.765 48.061 133.65 46.963C131.576 45.8243 129.929 44.2587 128.709 42.266C127.53 40.2327 126.94 37.8537 126.94 35.129ZM132.613 35.19C132.613 36.8167 132.979 38.301 133.711 39.643C134.443 40.9443 135.419 41.9813 136.639 42.754C137.9 43.5267 139.283 43.913 140.787 43.913C142.373 43.913 143.776 43.5267 144.996 42.754C146.257 41.9813 147.233 40.9443 147.924 39.643C148.616 38.301 148.961 36.8167 148.961 35.19C148.961 33.5633 148.616 32.0993 147.924 30.798C147.233 29.456 146.257 28.3987 144.996 27.626C143.776 26.8127 142.373 26.406 140.787 26.406C139.242 26.406 137.839 26.8127 136.578 27.626C135.358 28.4393 134.382 29.517 133.65 30.859C132.959 32.1603 132.613 33.604 132.613 35.19Z" fill="#34A5C9"/>
</svg>
