<svg width="29" height="29" viewBox="0 0 29 29" fill="none" xmlns="http://www.w3.org/2000/svg">
<g clip-path="url(#clip0_2_20)">
<path d="M5.37007 27.1875C5.37007 27.4255 5.41637 27.6612 5.50633 27.8811C5.59628 28.101 5.72813 28.3008 5.89435 28.4691C6.06057 28.6374 6.2579 28.7709 6.47507 28.862C6.69225 28.9531 6.92501 29 7.16008 29C7.63482 29 8.09012 28.809 8.42581 28.4691C8.59203 28.3008 8.72388 28.101 8.81384 27.8811C8.9038 27.6612 8.95009 27.4255 8.95009 27.1875C8.95009 26.7068 8.7615 26.2458 8.42581 25.9059C8.09012 25.566 7.63482 25.375 7.16008 25.375C6.68534 25.375 6.23004 25.566 5.89435 25.9059C5.55866 26.2458 5.37007 26.7068 5.37007 27.1875V27.1875ZM21.4802 27.1875C21.4802 27.4255 21.5265 27.6612 21.6164 27.8811C21.7064 28.101 21.8383 28.3008 22.0045 28.4691C22.1707 28.6374 22.368 28.7709 22.5852 28.862C22.8024 28.9531 23.0351 29 23.2702 29C23.7449 29 24.2002 28.809 24.5359 28.4691C24.7021 28.3008 24.834 28.101 24.924 27.8811C25.0139 27.6612 25.0602 27.4255 25.0602 27.1875C25.0602 26.7068 24.8716 26.2458 24.5359 25.9059C24.2002 25.566 23.7449 25.375 23.2702 25.375C22.7955 25.375 22.3402 25.566 22.0045 25.9059C21.6688 26.2458 21.4802 26.7068 21.4802 27.1875ZM-0.0518799 4.53125C-0.0518799 4.7716 0.0424152 5.00211 0.210261 5.17207C0.378108 5.34202 0.605756 5.4375 0.843127 5.4375H2.70295L3.81455 10.2515L5.37007 18.125C5.37007 18.1902 5.4005 18.2464 5.40766 18.3099L4.49654 22.4605C4.46709 22.593 4.46749 22.7304 4.49773 22.8627C4.52796 22.995 4.58725 23.1187 4.67118 23.2245C4.75511 23.3304 4.86153 23.4158 4.98252 23.4743C5.10352 23.5328 5.23598 23.563 5.37007 23.5625H25.676C25.9133 23.5625 26.141 23.467 26.3088 23.2971C26.4767 23.1271 26.571 22.8966 26.571 22.6562C26.571 22.4159 26.4767 22.1854 26.3088 22.0154C26.141 21.8455 25.9133 21.75 25.676 21.75H6.48704L6.89695 19.8831C6.98645 19.8976 7.067 19.9375 7.16008 19.9375H23.4761C24.4641 19.9375 25.0602 19.7399 25.5364 18.5781L28.4433 9.54825C28.9481 7.92969 27.8401 7.25 26.8502 7.25H5.37007C5.23045 7.25 5.10873 7.29894 4.97806 7.32975L4.28353 4.32462C4.23749 4.12553 4.1263 3.94805 3.96804 3.82103C3.80977 3.69402 3.61374 3.62493 3.4118 3.625H0.843127C0.605756 3.625 0.378108 3.72048 0.210261 3.89043C0.0424152 4.06039 -0.0518799 4.2909 -0.0518799 4.53125V4.53125ZM5.40587 9.0625H26.716L23.8591 17.9419C23.8251 18.0199 23.7965 18.0761 23.775 18.1141C23.7159 18.1196 23.6228 18.125 23.4761 18.125H7.16008V17.9456L7.12607 17.7697L5.40587 9.0625Z" fill="#0B2A34"/>
</g>
<defs>
<clipPath id="clip0_2_20">
<rect width="29" height="29" fill="white"/>
</clipPath>
</defs>
</svg>
