<svg width="48" height="47" viewBox="0 0 48 47" fill="none" xmlns="http://www.w3.org/2000/svg">
<path fill-rule="evenodd" clip-rule="evenodd" d="M42.9336 40.1458H5.72526C4.6865 40.1458 3.69028 39.7331 2.95576 38.9986C2.22124 38.2641 1.80859 37.2679 1.80859 36.2291V10.7708C1.80859 9.73203 2.22124 8.73581 2.95576 8.00129C3.69028 7.26677 4.6865 6.85413 5.72526 6.85413H42.9336C43.9724 6.85413 44.9686 7.26677 45.7031 8.00129C46.4376 8.73581 46.8503 9.73203 46.8503 10.7708V36.2291C46.8503 37.2679 46.4376 38.2641 45.7031 38.9986C44.9686 39.7331 43.9724 40.1458 42.9336 40.1458ZM44.8919 10.7708C44.8919 10.2514 44.6856 9.7533 44.3183 9.38604C43.9511 9.01878 43.453 8.81246 42.9336 8.81246H5.72526C5.20588 8.81246 4.70777 9.01878 4.34051 9.38604C3.97325 9.7533 3.76693 10.2514 3.76693 10.7708V36.2291C3.76693 36.7485 3.97325 37.2466 4.34051 37.6139C4.70777 37.9811 5.20588 38.1875 5.72526 38.1875H42.9336C43.453 38.1875 43.9511 37.9811 44.3183 37.6139C44.6856 37.2466 44.8919 36.7485 44.8919 36.2291V10.7708ZM41.3023 33.9917L35.1003 27.7897L31.5567 31.3333L34.8212 34.5978C34.9913 34.779 35.0842 35.0192 35.0803 35.2677C35.0764 35.5162 34.9759 35.7534 34.8002 35.9291C34.6245 36.1048 34.3873 36.2052 34.1388 36.2092C33.8904 36.2131 33.6501 36.1202 33.469 35.9501L19.4336 21.9147L7.35655 33.9917C7.17539 34.1618 6.93515 34.2547 6.68668 34.2508C6.43822 34.2469 6.20102 34.1465 6.02531 33.9707C5.8496 33.795 5.74915 33.5578 5.74523 33.3094C5.74132 33.0609 5.83424 32.8207 6.00432 32.6395L18.6405 20.0034C18.6718 19.9564 18.6924 19.9045 18.7335 19.8624C18.8253 19.7712 18.9348 19.6998 19.0551 19.6525C19.1755 19.6052 19.3043 19.583 19.4336 19.5872C19.5629 19.583 19.6917 19.6052 19.812 19.6525C19.9324 19.6998 20.0419 19.7712 20.1337 19.8624C20.1748 19.9045 20.1944 19.9564 20.2267 20.0034L30.2044 29.9811L34.3071 25.8784C34.3394 25.8323 34.359 25.7795 34.4002 25.7374C34.4921 25.6465 34.6016 25.5752 34.722 25.5279C34.8423 25.4806 34.971 25.4583 35.1003 25.4622C35.2295 25.4583 35.3582 25.4806 35.4786 25.5279C35.5989 25.5752 35.7084 25.6465 35.8004 25.7374C35.8415 25.7795 35.8611 25.8323 35.8934 25.8784L42.6545 32.6395C42.8246 32.8207 42.9175 33.0609 42.9136 33.3094C42.9097 33.5578 42.8093 33.795 42.6335 33.9707C42.4578 34.1465 42.2206 34.2469 41.9722 34.2508C41.7237 34.2547 41.4835 34.1618 41.3023 33.9917ZM29.2253 18.6041C28.1865 18.6041 27.1903 18.1915 26.4558 17.457C25.7212 16.7224 25.3086 15.7262 25.3086 14.6875C25.3086 13.6487 25.7212 12.6525 26.4558 11.918C27.1903 11.1834 28.1865 10.7708 29.2253 10.7708C30.264 10.7708 31.2602 11.1834 31.9948 11.918C32.7293 12.6525 33.1419 13.6487 33.1419 14.6875C33.1419 15.7262 32.7293 16.7224 31.9948 17.457C31.2602 18.1915 30.264 18.6041 29.2253 18.6041ZM29.2253 12.7291C28.968 12.7292 28.7133 12.7799 28.4757 12.8784C28.2381 12.9769 28.0222 13.1213 27.8403 13.3032C27.6585 13.4851 27.5142 13.7011 27.4158 13.9388C27.3175 14.1765 27.2669 14.4312 27.2669 14.6884C27.267 14.9457 27.3177 15.2004 27.4162 15.438C27.5147 15.6756 27.6591 15.8915 27.841 16.0734C28.0229 16.2552 28.2389 16.3995 28.4766 16.4979C28.7143 16.5962 28.969 16.6468 29.2262 16.6468C29.7458 16.6466 30.2439 16.4401 30.6112 16.0727C30.9785 15.7053 31.1847 15.207 31.1846 14.6875C31.1844 14.1679 30.9779 13.6698 30.6105 13.3025C30.2431 12.9352 29.7448 12.729 29.2253 12.7291V12.7291Z" fill="#0B2A34"/>
</svg>
