<svg width="80" height="66" viewBox="0 0 80 66" fill="none" xmlns="http://www.w3.org/2000/svg">
<path d="M57.1 0.299997C53.8448 0.282569 50.6257 0.981213 47.6706 2.34643C44.7155 3.71165 42.0968 5.71004 40 8.2C37.917 5.69391 35.301 3.68426 32.3428 2.31757C29.3845 0.950882 26.1585 0.261605 22.9 0.299997C16.9592 0.299997 11.2616 2.65999 7.06081 6.86081C2.85999 11.0616 0.5 16.7591 0.5 22.7C0.5 43.9 37.5 64.6 39 65.4C39.296 65.5978 39.644 65.7033 40 65.7033C40.356 65.7033 40.704 65.5978 41 65.4C42.5 64.6 79.5 44.2 79.5 22.7C79.5 16.7591 77.14 11.0616 72.9392 6.86081C68.7384 2.65999 63.0408 0.299997 57.1 0.299997ZM40 61.4C34.2 58 4.5 39.9 4.5 22.7C4.5 17.82 6.43857 13.1399 9.88923 9.68923C13.3399 6.23856 18.02 4.3 22.9 4.3C25.9609 4.25982 28.9815 5.00094 31.6762 6.45327C34.3708 7.90561 36.6506 10.0212 38.3 12.6C38.4947 12.8685 38.7503 13.0871 39.0458 13.2378C39.3413 13.3885 39.6683 13.4671 40 13.4671C40.3317 13.4671 40.6587 13.3885 40.9542 13.2378C41.2497 13.0871 41.5053 12.8685 41.7 12.6C43.8703 9.28088 47.0549 6.75176 50.7792 5.38946C54.5036 4.02715 58.5684 3.90457 62.3681 5.03998C66.1678 6.17539 69.4989 8.50802 71.8653 11.6903C74.2316 14.8726 75.5065 18.7343 75.5 22.7C75.5 40.1 45.8 58.1 40 61.4Z" fill="black"/>
</svg>
