<svg width="106" height="105" viewBox="0 0 106 105" fill="none" xmlns="http://www.w3.org/2000/svg">
<path d="M75.0982 45.1965C69.8059 33.3946 69.2237 32.8125 69.065 32.5479C68.9062 32.2832 68.2182 31.4894 60.9148 28.2611C60.0211 27.9663 59.0564 27.9663 58.1628 28.2611C56.4153 28.5764 54.6457 28.7533 52.8704 28.7903C51.0951 28.7533 49.3255 28.5764 47.5781 28.2611C46.6981 27.9946 45.759 27.9946 44.879 28.2611C37.4168 31.4365 36.9405 32.1245 36.6229 32.4949C36.3054 32.8654 36.0408 33.3946 30.4838 45.4082C29.9984 46.4606 29.9133 47.6539 30.2446 48.7646C30.5758 49.8752 31.3006 50.8269 32.2832 51.4415L36.9405 54.4581C36.9405 55.9929 36.9405 57.5806 36.9405 59.1154C36.9233 63.0041 37.1176 66.8909 37.5226 70.7585C37.6165 71.8425 37.968 72.8884 38.548 73.809C39.1279 74.7296 39.9195 75.4982 40.8568 76.0509C44.7124 76.9043 48.6586 77.2776 52.6058 77.1623C56.588 77.2777 60.5693 76.9044 64.4606 76.0509C65.3939 75.4988 66.1798 74.7292 66.7511 73.8076C67.3225 72.8861 67.6624 71.8399 67.7419 70.7585C68.1477 66.9087 68.3421 63.0395 68.324 59.1683C68.324 57.5277 68.324 55.8341 68.324 54.1935L73.0872 51.3886C74.1456 50.8044 74.9423 49.8396 75.3157 48.6898C75.6892 47.54 75.6114 46.2912 75.0982 45.1965ZM57.5806 30.8543C57.1279 31.6817 56.4624 32.373 55.6529 32.8569C54.8434 33.3407 53.9193 33.5995 52.9763 33.6063C52.0422 33.5901 51.1291 33.327 50.3297 32.8436C49.5303 32.3602 48.8731 31.6739 48.4249 30.8543C49.9433 31.1436 51.4837 31.303 53.0292 31.3306C54.5574 31.3057 56.0804 31.1463 57.5806 30.8543ZM71.7641 48.9012L68.1653 51.0181C68.1653 49.8538 68.1653 48.6366 67.9007 47.4722C67.848 47.112 67.6599 46.7855 67.3747 46.5593C67.0894 46.333 66.7286 46.2242 66.3659 46.255C66.0196 46.2817 65.6962 46.4384 65.4606 46.6936C65.225 46.9488 65.0947 47.2837 65.0957 47.631C65.5299 51.39 65.7243 55.1729 65.6779 58.9566C65.6965 62.7222 65.5021 66.4857 65.0957 70.2293C65.0597 70.8347 64.8889 71.4245 64.5959 71.9555C64.3029 72.4865 63.8951 72.9455 63.4022 73.2989C59.9492 73.9492 56.4349 74.2154 52.9233 74.0927C49.3744 74.214 45.8232 73.9299 42.3387 73.2459C41.8386 72.8953 41.4226 72.4382 41.1206 71.9074C40.8186 71.3765 40.6381 70.7854 40.5922 70.1764C40.1858 66.4151 39.9914 62.6339 40.01 58.8508C39.9582 55.1049 40.1173 51.359 40.4864 47.631C40.5161 47.2602 40.4 46.8924 40.1628 46.6058C39.9256 46.3192 39.586 46.1364 39.2162 46.0962C39.0085 46.0705 38.7976 46.0925 38.5997 46.1605C38.4018 46.2285 38.222 46.3408 38.074 46.4888C37.926 46.6368 37.8137 46.8166 37.7457 47.0145C37.6777 47.2125 37.6557 47.4233 37.6814 47.631C37.6814 48.8483 37.6814 50.1184 37.6814 51.3357L34.2943 49.1658C33.8969 48.9055 33.6045 48.5129 33.4689 48.0576C33.3333 47.6023 33.3632 47.1137 33.5534 46.6784C37.0463 37.999 38.9516 34.506 39.1103 34.1885C41.108 32.9832 43.217 31.973 45.4082 31.1718C45.9987 32.7077 47.0346 34.0321 48.3831 34.9751C49.7315 35.9181 51.331 36.4366 52.9763 36.4642C54.6255 36.4262 56.2271 35.9042 57.5821 34.9633C58.937 34.0223 59.9855 32.7039 60.5972 31.1718C62.7248 32.0615 64.7931 33.0868 66.7893 34.2414C67.1068 34.6648 68.7474 38.1048 72.5579 46.4138C72.7547 46.8534 72.7825 47.3502 72.6361 47.8091C72.4896 48.268 72.1792 48.6568 71.7641 48.9012Z" fill="#0B2A34"/>
</svg>
