<svg width="80" height="80" viewBox="0 0 80 80" fill="none" xmlns="http://www.w3.org/2000/svg">
<path d="M43.0812 9.57692C44.7444 8.37956 46.68 8 48 8H53.784C55.5964 8 57.3748 8.49256 58.9292 9.42508L66.058 13.7024C67.2628 14.4253 68 15.7273 68 17.1324V22C68 25.3137 65.3136 28 62 28H60V60.1508C61.6856 60.4124 63.3708 61.0388 64.7804 62.2136C66.8164 63.91 68 66.5192 68 70C68 71.1044 67.1044 72 66 72H54.0032H20C13.3726 72 8 66.6276 8 60C8 56.0776 9.88388 52.5948 12.7877 50.4084C13.6701 49.744 14.924 49.9208 15.5884 50.8032C16.2528 51.6856 16.0761 52.9396 15.1937 53.604C13.2503 55.0672 12 57.3872 12 60C12 64.4184 15.5817 68 20 68C21.15 68 21.8796 67.7184 22.3594 67.3984C22.8516 67.0704 23.2048 66.6184 23.4612 66.1056C23.7214 65.5852 23.8616 65.0404 23.9335 64.6088C23.9686 64.3976 23.9854 64.2264 23.9934 64.1152C23.9973 64.0604 23.999 64.0212 23.9996 64.0008L24 63.9884V63.9808L24.0004 63.944L24.0024 63.82C24.0047 63.7148 24.0091 63.5664 24.0177 63.378C24.0348 63.0016 24.0685 62.4652 24.1349 61.8008C24.2676 60.4744 24.5318 58.6268 25.0597 56.5148C26.1098 52.3144 28.238 46.9336 32.5858 42.5856C39.9578 35.2138 40 25.3224 40 22V16C40 12.9482 41.3164 10.8477 43.0812 9.57692ZM43.696 27.6014C43.0744 32.6242 41.1808 39.6477 35.4142 45.4144C31.762 49.0664 29.8902 53.6856 28.9403 57.4852C28.4682 59.3732 28.2324 61.0256 28.1151 62.1992C28.0565 62.7848 28.0277 63.2484 28.0136 63.5596C28.0065 63.7148 28.0031 63.832 28.0015 63.9068L28.0001 63.9868L28 64.004V64.0088L27.9999 64.0204L27.9996 64.0496L27.9974 64.134C27.9952 64.2016 27.991 64.2912 27.9832 64.4004C27.9677 64.6176 27.9376 64.9148 27.879 65.2664C27.7634 65.9596 27.5286 66.9148 27.0388 67.8944C27.0213 67.9296 27.0034 67.9648 26.9851 68H51.6776C51.2752 66.7224 50.4644 65.4052 49.0688 64.6712C48.326 64.28 47.332 64 45.9968 64H42C40.8956 64 40 63.1044 40 62C40 60.8956 40.8956 60 42 60H46C46.7036 60 47.37 60.0552 48 60.1604V50C48 48.8956 48.8956 48 50 48C51.1044 48 52 48.8956 52 50V61.7924C54.3168 63.4628 55.3872 65.95 55.7928 68H63.7924C63.49 66.6892 62.8904 65.8456 62.2196 65.2864C61.1916 64.4296 59.7028 64 58 64C56.8956 64 56 63.1044 56 62V26C56 24.8954 56.8956 24 58 24H62C63.1044 24 64 23.1046 64 22V17.1324L56.8712 12.855C55.9388 12.2956 54.8716 12 53.784 12H48C47.32 12 46.2556 12.2204 45.4188 12.8231C44.6836 13.3523 44 14.2518 44 16V22C44 22.3466 44.1204 22.9111 44.4232 23.3314C44.6524 23.6497 45.052 24 46 24C46.948 24 47.3476 23.6497 47.5768 23.3314C47.8796 22.9111 48 22.3466 48 22C48 20.8954 48.8956 20 50 20C51.1044 20 52 20.8954 52 22C52 22.9867 51.7204 24.4223 50.8232 25.6686C49.8524 27.0169 48.252 28 46 28C45.1368 28 44.3692 27.8555 43.696 27.6014Z" fill="#0B2A34"/>
</svg>
