<svg width="37" height="37" viewBox="0 0 37 37" fill="none" xmlns="http://www.w3.org/2000/svg">
<mask id="mask0_19_11141" style="mask-type:alpha" maskUnits="userSpaceOnUse" x="0" y="0" width="37" height="37">
<path d="M0.0351562 37V0.0231323H37.0005V37H0.0351562Z" fill="white"/>
</mask>
<g mask="url(#mask0_19_11141)">
<path fill-rule="evenodd" clip-rule="evenodd" d="M23.7659 20.5922C23.6693 20.5675 23.568 20.5667 23.471 20.5897C23.3739 20.6128 23.2839 20.6591 23.2086 20.7246C22.3091 21.493 21.0667 22.3116 20.5308 22.396C16.9365 20.6391 14.9293 17.2669 14.8536 16.6275C14.8096 16.2679 15.6335 15.0052 16.581 13.9785C16.7007 13.8484 16.7614 13.6715 16.7446 13.4952C16.5035 10.7236 13.6123 9.36389 13.4903 9.30839C13.3759 9.25465 13.2477 9.23749 13.1232 9.25925C9.78514 9.8131 9.28275 11.7556 9.2631 11.8365C9.23535 11.9498 9.23997 12.0672 9.27524 12.1771C13.2568 24.5293 21.5309 26.8192 24.2504 27.5719C24.4603 27.6303 24.6325 27.6766 24.7638 27.7199C24.9136 27.7685 25.0762 27.759 25.2193 27.6933C25.3026 27.6552 27.2682 26.7296 27.7486 23.7095C27.77 23.5783 27.7486 23.4418 27.6879 23.3233C27.6452 23.24 26.6173 21.2837 23.7659 20.5922" fill="#FFFFFE"/>
<path fill-rule="evenodd" clip-rule="evenodd" d="M27.7477 23.7095C27.2673 26.7296 25.3016 27.6552 25.2184 27.6933C25.0752 27.759 24.9127 27.7685 24.7628 27.7199C24.6316 27.6766 24.4593 27.6303 24.2495 27.5719C21.53 26.8192 13.2558 24.5293 9.27428 12.177C9.23877 12.0669 9.23457 11.949 9.26214 11.8365C9.2818 11.7556 9.78419 9.81309 13.1223 9.25925C13.246 9.23786 13.3743 9.25405 13.4894 9.30839C13.6114 9.36389 16.5026 10.7236 16.7437 13.4952C16.7604 13.6715 16.6997 13.8484 16.58 13.9785C15.6325 15.0052 14.8087 16.2679 14.8526 16.6275C14.9283 17.2669 16.9356 20.6391 20.5298 22.396C21.0657 22.3116 22.3081 21.493 23.2077 20.7246C23.3615 20.5934 23.5661 20.5408 23.765 20.5922C26.6163 21.2837 27.6442 23.24 27.687 23.3233C27.7477 23.4418 27.7691 23.5783 27.7477 23.7095ZM18.5 0C8.2828 0 0 8.2828 0 18.5C0 28.7172 8.2828 37 18.5 37C28.7172 37 37 28.7172 37 18.5C37 8.2828 28.7172 0 18.5 0Z" fill="#34A5C9"/>
</g>
</svg>
