<svg width="80" height="80" viewBox="0 0 80 80" fill="none" xmlns="http://www.w3.org/2000/svg">
<g clip-path="url(#clip0_9_196)">
<path d="M40 3.20001C19.6784 3.20001 3.19995 19.6768 3.19995 40C3.19995 60.3232 19.6784 76.8 40 76.8C60.3216 76.8 76.8 60.3232 76.8 40C76.8 19.6768 60.3216 3.20001 40 3.20001Z" stroke="#0B2A34" stroke-width="2" stroke-miterlimit="10" stroke-linecap="round" stroke-linejoin="round"/>
<path d="M29.936 55.5504L23.6816 36.2512L40.0416 24.3248L56.4048 36.2512L50.1568 55.5504H29.936Z" stroke="#0B2A34" stroke-width="2" stroke-miterlimit="10" stroke-linecap="round" stroke-linejoin="round"/>
<path d="M53.9808 6.06079L40.0416 12.008L26.1056 6.06079" stroke="#0B2A34" stroke-width="2" stroke-miterlimit="10" stroke-linecap="round" stroke-linejoin="round"/>
<path d="M12.2336 16.1696L13.5728 31.3104L3.62085 42.7664" stroke="#0B2A34" stroke-width="2" stroke-miterlimit="10" stroke-linecap="round" stroke-linejoin="round"/>
<path d="M8.92163 59.1312L23.6848 62.5312L31.4752 75.5648" stroke="#0B2A34" stroke-width="2" stroke-miterlimit="10" stroke-linecap="round" stroke-linejoin="round"/>
<path d="M48.6208 75.5648L56.4048 62.5248L71.1632 59.1248" stroke="#0B2A34" stroke-width="2" stroke-miterlimit="10" stroke-linecap="round" stroke-linejoin="round"/>
<path d="M76.4688 42.7632L66.5088 31.3008L67.8464 16.1696" stroke="#0B2A34" stroke-width="2" stroke-miterlimit="10" stroke-linecap="round" stroke-linejoin="round"/>
<path d="M40.0416 12.008V24.3248" stroke="#0B2A34" stroke-width="2" stroke-miterlimit="10" stroke-linecap="round" stroke-linejoin="round"/>
<path d="M56.4048 36.7296L66.5088 31.3008" stroke="#0B2A34" stroke-width="2" stroke-miterlimit="10" stroke-linecap="round" stroke-linejoin="round"/>
<path d="M50.1567 55.5504L56.4047 62.5248" stroke="#0B2A34" stroke-width="2" stroke-miterlimit="10" stroke-linecap="round" stroke-linejoin="round"/>
<path d="M29.936 55.5504L23.6848 62.5312" stroke="#0B2A34" stroke-width="2" stroke-miterlimit="10" stroke-linecap="round" stroke-linejoin="round"/>
<path d="M13.5728 31.3104L23.6816 36.2512" stroke="#0B2A34" stroke-width="2" stroke-miterlimit="10" stroke-linecap="round" stroke-linejoin="round"/>
</g>
<defs>
<clipPath id="clip0_9_196">
<rect width="80" height="80" fill="white"/>
</clipPath>
</defs>
</svg>
