<svg width="120" height="120" viewBox="0 0 120 120" fill="none" xmlns="http://www.w3.org/2000/svg">
<path d="M91.9407 55.5682C91.6807 55.5682 91.4225 55.5759 91.1653 55.5879C91.1323 55.5895 91.0993 55.5904 91.0664 55.5921C90.8253 55.605 90.5853 55.6237 90.3471 55.6469C90.3003 55.6516 90.2534 55.6558 90.2063 55.661C89.9764 55.6854 89.7474 55.7144 89.5203 55.7484C89.4675 55.7561 89.4155 55.7646 89.363 55.7728C89.1392 55.8084 88.9168 55.8475 88.696 55.8923C88.6449 55.9024 88.5943 55.9141 88.5436 55.9249C88.3428 55.9676 88.1426 56.0135 87.9443 56.0636C87.885 56.0784 87.826 56.0936 87.7669 56.1093C87.5796 56.1588 87.394 56.212 87.2096 56.268C87.1437 56.2879 87.0776 56.3072 87.0118 56.3278C86.8214 56.388 86.6332 56.4527 86.446 56.5197C86.3686 56.5474 86.2918 56.575 86.2151 56.6039C86.0358 56.6711 85.8579 56.7412 85.6819 56.8143C85.6015 56.8479 85.5218 56.8821 85.4426 56.9168C85.2694 56.992 85.0967 57.0691 84.9268 57.1504L72.323 36.1195C71.2676 34.4222 68.2001 31.6711 63.7182 32.3901C63.3399 31.9706 62.7943 31.7043 62.1884 31.7043H57.9689C56.8336 31.7043 55.9046 32.6334 55.9046 33.7687V34.2768C55.9046 35.4122 56.8336 36.341 57.9689 36.341H62.1884C62.821 36.341 63.3889 36.0522 63.7683 35.6001C67.4923 34.735 69.3919 37.4161 69.6354 37.7892L73.4893 44.2197H41.6553L39.0671 39.9014H42.3797C43.647 39.9014 44.6843 38.864 44.6843 37.5965V36.7542C44.6843 35.4865 43.647 34.4493 42.3797 34.4493H30.7132C29.4455 34.4493 28.4084 35.4867 28.4084 36.7542V37.5965C28.4084 38.8643 29.4455 39.9014 30.7132 39.9014H35.3782L38.9546 45.8688L33.7496 56.5898C33.7493 56.5898 33.7493 56.5898 33.7493 56.5898C33.5977 56.5333 33.4432 56.4822 33.2897 56.43C33.2042 56.4009 33.1193 56.3707 33.0333 56.343C32.8925 56.298 32.7502 56.257 32.6077 56.2158C32.5053 56.186 32.4029 56.1558 32.2995 56.1279C32.1647 56.0915 32.029 56.0583 31.8929 56.0254C31.778 55.9978 31.6627 55.9708 31.5467 55.9453C31.4173 55.9172 31.2879 55.8907 31.1576 55.8656C31.0299 55.841 30.9019 55.8185 30.7732 55.7969C30.6507 55.7763 30.5281 55.7561 30.4046 55.7383C30.2623 55.7177 30.1189 55.7004 29.9752 55.6837C29.8627 55.6704 29.7502 55.6563 29.6368 55.6453C29.4696 55.6293 29.3014 55.6179 29.1329 55.6068C29.04 55.601 28.9479 55.5925 28.8546 55.5881C28.591 55.5752 28.3264 55.5679 28.0596 55.5679C19.0369 55.5679 11.6963 62.9088 11.6963 71.9315C11.6963 80.9543 19.0369 88.2947 28.0596 88.2947C28.3336 88.2947 28.6057 88.2874 28.8764 88.2738C28.9671 88.2694 29.0569 88.2604 29.1474 88.2543C29.3264 88.2426 29.5055 88.2311 29.6829 88.2136C29.79 88.2028 29.8957 88.188 30.0021 88.1754C30.1613 88.1564 30.3204 88.1381 30.4779 88.1147C30.5911 88.0978 30.7029 88.0769 30.8152 88.0579C30.9643 88.0326 31.1131 88.0073 31.261 87.978C31.3763 87.9548 31.4904 87.9286 31.6053 87.9033C31.7473 87.8716 31.8898 87.84 32.0304 87.8048C32.1467 87.7758 32.2618 87.7436 32.3771 87.712C32.5139 87.6745 32.6506 87.6368 32.7861 87.5958C32.9021 87.5606 33.0171 87.5231 33.1325 87.4856C33.2644 87.4422 33.3957 87.3984 33.5262 87.3522C33.6415 87.311 33.7564 87.2683 33.8707 87.2245C33.998 87.1762 34.1243 87.1263 34.25 87.0747C34.3643 87.0279 34.4782 86.9798 34.5912 86.9304C34.7136 86.8767 34.8354 86.8214 34.9566 86.7649C35.0696 86.7119 35.1823 86.6585 35.2939 86.6034C35.4118 86.5451 35.528 86.4848 35.6443 86.4236C35.7561 86.3648 35.8676 86.3058 35.978 86.2446C36.0903 86.182 36.2011 86.1173 36.312 86.0524C36.4226 85.9875 36.5332 85.9226 36.6422 85.8553C36.7489 85.7892 36.8534 85.7208 36.9586 85.6523C37.0683 85.5808 37.1782 85.5103 37.2858 85.4365C37.3861 85.3678 37.4839 85.2963 37.5823 85.2255C37.6915 85.1472 37.8012 85.0699 37.9083 84.9888C37.9997 84.9197 38.0886 84.8475 38.1781 84.7767C38.2887 84.6895 38.4 84.6035 38.5081 84.5135C38.5843 84.45 38.6581 84.3832 38.7333 84.3185C38.851 84.2165 38.97 84.1162 39.0849 84.011C39.0985 83.9986 39.1111 83.9857 39.1247 83.973C39.4639 83.6613 39.7897 83.3353 40.1016 82.9964C40.1114 82.9854 40.1222 82.9751 40.1323 82.964C40.2544 82.8304 40.3721 82.6926 40.49 82.5548C40.5366 82.5004 40.5849 82.4472 40.6311 82.3922C40.7396 82.2619 40.8436 82.1283 40.9484 81.9947C41 81.929 41.0527 81.8643 41.1033 81.7978C41.2032 81.6658 41.299 81.5313 41.3949 81.3965C41.4457 81.3248 41.4975 81.2545 41.5472 81.1821C41.64 81.0471 41.7293 80.9097 41.8179 80.7719C41.8667 80.6967 41.9157 80.6219 41.9628 80.546C42.049 80.4072 42.1322 80.2666 42.2143 80.1251C42.2595 80.047 42.3052 79.9692 42.3493 79.8904C42.4292 79.7475 42.5061 79.6026 42.5818 79.4573C42.6232 79.3772 42.6647 79.2972 42.7048 79.2168C42.7784 79.0692 42.8497 78.9204 42.919 78.7704C42.9563 78.6893 42.9933 78.6082 43.0296 78.5264C43.0969 78.3738 43.1621 78.2201 43.2251 78.0654C43.2582 77.9838 43.29 77.9022 43.3217 77.8202C43.3831 77.6622 43.4424 77.5033 43.4986 77.343C43.527 77.2626 43.5537 77.1815 43.5809 77.1004C43.6357 76.9364 43.6892 76.7716 43.7389 76.6052C43.7623 76.5269 43.7836 76.4477 43.8061 76.369C43.8544 76.1976 43.9015 76.0258 43.9444 75.8524C43.9627 75.7783 43.9786 75.7036 43.9962 75.6293C44.0379 75.4488 44.0789 75.2681 44.1146 75.0855C44.1275 75.0199 44.1382 74.9533 44.15 74.8872C44.1854 74.6944 44.2198 74.5012 44.2482 74.306C44.2552 74.2572 44.2603 74.208 44.2669 74.1593C44.2962 73.945 44.3239 73.7306 44.3447 73.514C44.3447 73.5138 44.3447 73.5136 44.3447 73.5136H49.2284C50.1333 76.5799 52.973 78.825 56.3288 78.825C57.0844 78.825 57.814 78.7106 58.5014 78.499L60.3872 81.7577C59.9276 82.0345 59.6171 82.5335 59.6171 83.1091C59.6171 83.9831 60.3251 84.6911 61.1991 84.6911H65.9792C66.8532 84.6911 67.5612 83.9831 67.5612 83.1091C67.5612 82.2351 66.8532 81.5271 65.9792 81.5271H63.9097L61.2558 76.9411C62.7741 75.5845 63.7315 73.6136 63.7315 71.4222C63.7315 69.7169 63.1505 68.1454 62.1774 66.8925L76.1241 48.6164L82.2155 58.781C82.1492 58.8304 82.0838 58.8815 82.0182 58.9319C81.9029 59.0203 81.7885 59.1101 81.6755 59.2015C81.6108 59.254 81.545 59.3055 81.4812 59.3587C81.3338 59.4815 81.1894 59.6076 81.0467 59.7351C80.9801 59.7947 80.914 59.8549 80.8482 59.9156C80.7066 60.0464 80.5667 60.1788 80.43 60.3143C80.3733 60.3705 80.3178 60.4282 80.2618 60.4854C80.1549 60.5946 80.0494 60.7052 79.9456 60.817C79.894 60.8723 79.842 60.9272 79.7911 60.9832C79.6589 61.1299 79.5303 61.2799 79.4035 61.4311C79.3505 61.4941 79.2982 61.5569 79.2464 61.6209C79.1206 61.7754 78.9971 61.9319 78.8766 62.0913C78.8335 62.1483 78.792 62.2064 78.7493 62.264C78.6488 62.4007 78.5504 62.539 78.454 62.6789C78.4196 62.7295 78.3837 62.7792 78.3497 62.8301C78.2339 63.0023 78.1222 63.1779 78.0127 63.3548C77.9752 63.416 77.9377 63.4769 77.9007 63.5381C77.7929 63.7176 77.6881 63.8988 77.5873 64.0826C77.5578 64.1362 77.5297 64.1904 77.5008 64.2443C77.4104 64.4133 77.3227 64.5834 77.2386 64.7559C77.2193 64.795 77.1992 64.8337 77.1802 64.8731C77.085 65.0714 76.995 65.2725 76.9076 65.475C76.8832 65.5307 76.8593 65.587 76.8357 65.6433C76.7511 65.846 76.6697 66.0508 76.5931 66.2578C76.5748 66.3065 76.5579 66.3558 76.5401 66.4047C76.4675 66.6061 76.3986 66.809 76.3336 67.0139C76.3257 67.0387 76.317 67.0633 76.3093 67.0882C76.2401 67.3101 76.1773 67.5347 76.1178 67.7604C76.1047 67.8108 76.0913 67.8609 76.0784 67.9113C76.0219 68.1344 75.9697 68.359 75.9225 68.5856C75.9129 68.6313 75.9043 68.6775 75.8951 68.7234C75.8492 68.9531 75.807 69.1844 75.7709 69.4176C75.769 69.4284 75.7669 69.439 75.7655 69.4497C75.7287 69.6907 75.6989 69.9337 75.6727 70.1779C75.6678 70.2248 75.6624 70.2712 75.6579 70.3186C75.6343 70.5565 75.616 70.7955 75.6031 71.0365C75.6007 71.0822 75.5989 71.1281 75.597 71.1738C75.5853 71.425 75.5778 71.6775 75.5778 71.9315C75.5778 80.9543 82.9182 88.2947 91.9409 88.2947C100.964 88.2947 108.304 80.9543 108.304 71.9315C108.304 62.9088 100.963 55.5682 91.9407 55.5682ZM36.5937 57.9764L40.8975 49.1118L51.1196 66.1687C50.0061 67.2726 49.2411 68.7265 49.0046 70.35H44.3447C44.3447 70.3497 44.3447 70.3495 44.3445 70.3495C44.3354 70.2541 44.3236 70.1597 44.3129 70.065C44.2969 69.9234 44.2786 69.7823 44.2589 69.6417C44.243 69.528 44.2266 69.4141 44.2081 69.3011C44.1807 69.1315 44.1504 68.9632 44.1176 68.7954C44.0982 68.6958 44.0782 68.5966 44.0569 68.4977C44.0171 68.3114 43.9744 68.126 43.9282 67.942C43.9048 67.8485 43.879 67.7557 43.8539 67.6629C43.8176 67.5286 43.7796 67.3945 43.7398 67.2616C43.7051 67.1451 43.6695 67.0289 43.6322 66.9133C43.5835 66.7631 43.5329 66.6138 43.4804 66.4654C43.4473 66.3731 43.4145 66.2812 43.38 66.1898C43.3137 66.0131 43.2446 65.838 43.1724 65.6643C43.1363 65.5776 43.0986 65.4918 43.0606 65.4056C43.0032 65.2739 42.9441 65.1433 42.8832 65.0135C42.8328 64.9061 42.7814 64.7993 42.7292 64.6933C42.661 64.5555 42.5907 64.4189 42.5189 64.2832C42.4751 64.2007 42.4315 64.1186 42.3865 64.0373C42.2949 63.8716 42.2007 63.7078 42.1036 63.5456C42.057 63.468 42.0092 63.3911 41.9614 63.3143C41.8807 63.1847 41.7985 63.0565 41.7143 62.9294C41.6532 62.8368 41.5913 62.7452 41.5282 62.654C41.4411 62.5277 41.352 62.4028 41.2611 62.2788C41.2088 62.2075 41.1572 62.1365 41.1038 62.0662C40.9885 61.9141 40.8706 61.7643 40.7501 61.6162C40.6943 61.548 40.6379 61.4808 40.5809 61.4133C40.4759 61.2883 40.369 61.1648 40.2603 61.0432C40.1921 60.9668 40.1227 60.8913 40.0529 60.8158C39.949 60.7036 39.8431 60.5927 39.7357 60.4833C39.6764 60.4228 39.6179 60.3623 39.5579 60.3028C39.421 60.1678 39.2818 60.0351 39.1404 59.9051C39.0764 59.846 39.0118 59.7879 38.9468 59.7297C38.8149 59.6121 38.6818 59.4961 38.5463 59.3826C38.4757 59.3236 38.4043 59.2657 38.3325 59.2078C38.2137 59.1115 38.0932 59.017 37.9718 58.924C37.9069 58.8743 37.8422 58.8241 37.7764 58.7754C37.6207 58.66 37.4623 58.548 37.3027 58.4383C37.2312 58.3893 37.1595 58.3408 37.0873 58.293C36.9246 58.185 36.7604 58.0788 36.5937 57.9764ZM56.5423 69.0614L55.4696 67.2715C55.7473 67.2143 56.0344 67.1838 56.3288 67.1838C56.8379 67.1838 57.3239 67.2785 57.7768 67.4437L56.5423 69.0614ZM53.6255 70.3497H52.2329C52.3582 69.8718 52.5614 69.4256 52.8338 69.0288L53.6255 70.3497ZM35.2027 60.8414C36.6094 61.7505 37.8329 62.9196 38.8041 64.2804C38.8071 64.2846 38.81 64.2883 38.8128 64.2926C38.9496 64.4845 39.0814 64.6802 39.2084 64.8797C39.2089 64.8811 39.2098 64.8822 39.2107 64.8834C39.9802 66.0968 40.557 67.4435 40.8985 68.8807C40.8989 68.8825 40.8994 68.8844 40.8999 68.8861C40.9554 69.1209 41.0046 69.3581 41.0478 69.5976C41.0489 69.6051 41.0506 69.6129 41.052 69.6206C41.0946 69.8606 41.1307 70.1032 41.1603 70.3474C41.1603 70.3483 41.1605 70.3493 41.1605 70.3502H30.586L35.2027 60.8414ZM14.8599 71.9318C14.8599 64.6535 20.7811 58.7322 28.0592 58.7322C28.2678 58.7322 28.4747 58.7383 28.681 58.7479C28.7579 58.7517 28.8343 58.7578 28.9109 58.7627C29.0363 58.7709 29.1614 58.7798 29.2861 58.7915C29.3841 58.8007 29.4816 58.8112 29.5786 58.8227C29.6757 58.8337 29.7718 58.8464 29.8681 58.8595C29.982 58.8752 30.0959 58.8916 30.2089 58.9104C30.2738 58.9209 30.3385 58.9336 30.4029 58.945C31.0725 59.0667 31.726 59.2368 32.3572 59.4548C32.3576 59.4548 32.3576 59.4551 32.3581 59.4551L26.6358 71.2408C26.3979 71.7314 26.4286 72.3096 26.7181 72.7713C27.0075 73.233 27.514 73.5138 28.0592 73.5138H41.16C41.16 73.5152 41.1598 73.5164 41.1596 73.5178C40.9393 75.348 40.343 77.0639 39.4507 78.5864C39.4465 78.5936 39.4425 78.6011 39.4381 78.6084C39.3469 78.7633 39.2522 78.9157 39.1552 79.0661C39.1421 79.0861 39.1299 79.1062 39.1168 79.1259C39.0242 79.2677 38.9288 79.4074 38.8308 79.5452C38.8116 79.5726 38.7921 79.5998 38.7727 79.6272C38.6778 79.7592 38.5805 79.8888 38.4809 80.017C38.4565 80.0484 38.4319 80.0796 38.4073 80.1105C38.3093 80.2343 38.2093 80.3566 38.1071 80.4769C38.0789 80.5101 38.0504 80.5425 38.022 80.5753C37.92 80.6925 37.8167 80.8085 37.711 80.9222C37.6803 80.955 37.6489 80.9871 37.6179 81.0197C37.5115 81.1319 37.4039 81.2428 37.2933 81.3511C37.2624 81.3813 37.2307 81.4106 37.1998 81.4406C37.0864 81.5496 36.972 81.6579 36.855 81.7626C36.8297 81.7854 36.8032 81.8069 36.7779 81.8294C36.2522 82.2933 35.689 82.7151 35.0939 83.092C35.0447 83.1232 34.9964 83.1558 34.9468 83.1862C34.8436 83.2497 34.7379 83.3095 34.6329 83.3702C34.5596 83.4124 34.4869 83.4558 34.4129 83.4968C34.3154 83.5507 34.2155 83.6015 34.1164 83.6531C34.0322 83.6969 33.9486 83.741 33.8635 83.7829C33.7679 83.8298 33.6711 83.8743 33.5743 83.9191C33.4829 83.9613 33.3914 84.0035 33.2989 84.0438C33.2044 84.0848 33.1086 84.124 33.0127 84.1629C32.9157 84.2025 32.8184 84.2411 32.7204 84.2784C32.626 84.314 32.5306 84.3485 32.435 84.3822C32.333 84.4179 32.2308 84.4528 32.1279 84.4863C32.0337 84.517 31.9388 84.5465 31.8436 84.5751C31.737 84.6072 31.6294 84.6375 31.5216 84.667C31.4281 84.6923 31.3341 84.7176 31.2396 84.7411C31.1276 84.7687 31.0151 84.7943 30.9021 84.8191C30.8096 84.8395 30.717 84.8604 30.6237 84.8786C30.5058 84.9021 30.3872 84.9225 30.2682 84.9424C30.1777 84.9574 30.0877 84.9738 29.9968 84.9872C29.8707 85.0059 29.7432 85.0207 29.6159 85.0357C29.5306 85.0458 29.4455 85.0575 29.3597 85.0659C29.2172 85.08 29.0733 85.0893 28.9296 85.099C28.8575 85.1036 28.7862 85.1107 28.7136 85.114C28.4968 85.1247 28.2788 85.1306 28.0592 85.1306C20.7811 85.1311 14.8599 79.2098 14.8599 71.9318ZM56.3288 75.6611C54.7519 75.6611 53.3764 74.7942 52.6463 73.5138H55.6165L56.8395 75.6274C56.6717 75.6478 56.5018 75.6611 56.3288 75.6611ZM60.5672 71.4225C60.5672 72.4373 60.2082 73.3692 59.6112 74.0997L58.3461 71.9133L60.135 69.5693C60.409 70.1301 60.5672 70.7573 60.5672 71.4225ZM59.7483 64.8602C58.7246 64.3244 57.5618 64.0197 56.3288 64.0197C55.437 64.0197 54.582 64.1782 53.7896 64.4683L43.5511 47.3843H73.0843L59.7483 64.8602ZM91.9407 85.1311C84.6626 85.1311 78.7416 79.2098 78.7416 71.932C78.7416 71.684 78.7498 71.4382 78.7634 71.1937C78.7679 71.1154 78.7756 71.0381 78.7812 70.9601C78.7936 70.7934 78.807 70.627 78.8255 70.4622C78.8351 70.3734 78.8475 70.2855 78.8593 70.1974C78.8797 70.0427 78.9021 69.889 78.9277 69.7359C78.9425 69.6483 78.9582 69.5611 78.9746 69.4741C79.0041 69.318 79.0369 69.1629 79.0718 69.0086C79.0896 68.9301 79.107 68.8511 79.1262 68.7731C79.1693 68.5997 79.2162 68.4276 79.2659 68.257C79.2821 68.2015 79.2966 68.1452 79.3135 68.0901C79.4553 67.6254 79.6214 67.1709 79.812 66.7291C79.8207 66.7094 79.83 66.6902 79.8385 66.6705C79.9254 66.4715 80.0171 66.2749 80.1134 66.0811C80.1326 66.0426 80.1528 66.0049 80.1722 65.9667C80.2625 65.7895 80.356 65.6147 80.4537 65.4424C80.4753 65.4047 80.4973 65.3672 80.5189 65.3294C80.622 65.1518 80.7289 64.9767 80.84 64.8047C80.8566 64.7789 80.873 64.7526 80.8899 64.7271C81.5581 63.7066 82.3627 62.7836 83.2789 61.9851C83.2817 61.9828 83.2843 61.9802 83.2868 61.9781C83.4708 61.818 83.6593 61.6629 83.8517 61.5131L90.5834 72.7458C90.8801 73.2403 91.4042 73.5147 91.9421 73.5147C92.2186 73.5147 92.4992 73.4421 92.7537 73.2895C93.503 72.8402 93.7465 71.8687 93.2975 71.1192L86.5634 59.8825C86.5636 59.8825 86.5639 59.8826 86.5639 59.8823C86.7685 59.7907 86.9757 59.7042 87.1852 59.6229C87.1868 59.6224 87.188 59.6217 87.1894 59.6212C87.3947 59.5415 87.6029 59.4672 87.8126 59.3976C87.8204 59.395 87.8279 59.3925 87.8356 59.3899C88.0365 59.3238 88.2399 59.2631 88.445 59.2064C88.4628 59.2015 88.4801 59.1961 88.4979 59.1914C88.6913 59.1389 88.8868 59.0918 89.0836 59.0479C89.1132 59.0414 89.1425 59.0336 89.1722 59.0275C89.3564 58.9879 89.543 58.9537 89.73 58.9218C89.772 58.9148 89.8132 58.9061 89.8554 58.8993C90.0312 58.8712 90.2086 58.8487 90.3865 58.8276C90.4402 58.8213 90.4927 58.8129 90.5464 58.8072C90.7207 58.7887 90.8965 58.7763 91.0728 58.7646C91.1293 58.7608 91.185 58.7547 91.2418 58.7517C91.4733 58.7395 91.7063 58.7327 91.9409 58.7327C99.2192 58.7327 105.14 64.654 105.14 71.9322C105.14 79.2098 99.2189 85.1311 91.9407 85.1311Z" fill="#0B2A34"/>
<path d="M84.7086 51.0365L85.3255 52.0692C85.6217 52.5651 86.1467 52.8403 86.6853 52.8403C86.9612 52.8403 87.2408 52.7679 87.4948 52.6162C88.2451 52.1683 88.49 51.1969 88.0419 50.4469L87.4252 49.4142C86.9771 48.6642 86.0054 48.4188 85.2556 48.8674C84.5056 49.3151 84.2607 50.2863 84.7086 51.0365Z" fill="#0B2A34"/>
<path d="M81.8051 46.1768C82.1013 46.6727 82.6261 46.9479 83.1647 46.9479C83.4408 46.9479 83.7202 46.8755 83.9745 46.7236C84.7245 46.2755 84.9696 45.304 84.5213 44.554L78.5527 34.5635C78.105 33.8135 77.1338 33.5684 76.3833 34.0167C75.6333 34.4648 75.3884 35.4363 75.8367 36.1863L81.8051 46.1768Z" fill="#0B2A34"/>
</svg>
