<svg width="92" height="36" viewBox="0 0 92 36" fill="none" xmlns="http://www.w3.org/2000/svg">
<path d="M9.736 28.36C8.656 28.36 7.612 28.132 6.604 27.676C5.62 27.196 4.84 26.56 4.264 25.768V35.164H0.916V12.844H3.832L4.12 15.364C4.84 14.524 5.728 13.84 6.784 13.312C7.864 12.76 9.052 12.484 10.348 12.484C11.764 12.484 13.024 12.82 14.128 13.492C15.256 14.164 16.144 15.1 16.792 16.3C17.44 17.5 17.764 18.904 17.764 20.512C17.764 22.12 17.404 23.512 16.684 24.688C15.988 25.864 15.028 26.776 13.804 27.424C12.604 28.048 11.248 28.36 9.736 28.36ZM9.088 25.66C10.024 25.66 10.888 25.444 11.68 25.012C12.496 24.556 13.144 23.944 13.624 23.176C14.104 22.408 14.344 21.532 14.344 20.548C14.344 19.54 14.116 18.652 13.66 17.884C13.204 17.092 12.592 16.48 11.824 16.048C11.08 15.592 10.24 15.364 9.304 15.364C8.008 15.364 6.916 15.724 6.028 16.444C5.14 17.164 4.552 18.1 4.264 19.252V21.772C4.456 22.9 4.996 23.836 5.884 24.58C6.796 25.3 7.864 25.66 9.088 25.66ZM20.9598 20.404C20.9598 18.916 21.3078 17.572 22.0038 16.372C22.7238 15.172 23.7078 14.224 24.9558 13.528C26.2038 12.832 27.6318 12.484 29.2398 12.484C30.8478 12.484 32.2638 12.832 33.4878 13.528C34.7118 14.224 35.6598 15.172 36.3318 16.372C37.0278 17.572 37.3758 18.916 37.3758 20.404C37.3758 21.892 37.0278 23.236 36.3318 24.436C35.6598 25.636 34.6998 26.596 33.4518 27.316C32.2278 28.012 30.7998 28.36 29.1678 28.36C27.5838 28.36 26.1678 28.036 24.9198 27.388C23.6958 26.74 22.7238 25.816 22.0038 24.616C21.3078 23.416 20.9598 22.012 20.9598 20.404ZM24.3438 20.44C24.3438 21.4 24.5478 22.276 24.9558 23.068C25.3878 23.836 25.9638 24.448 26.6838 24.904C27.4038 25.36 28.2198 25.588 29.1318 25.588C30.0678 25.588 30.8958 25.36 31.6158 24.904C32.3358 24.448 32.8998 23.836 33.3078 23.068C33.7398 22.276 33.9558 21.4 33.9558 20.44C33.9558 19.48 33.7398 18.616 33.3078 17.848C32.8998 17.056 32.3358 16.432 31.6158 15.976C30.8958 15.496 30.0678 15.256 29.1318 15.256C28.2198 15.256 27.3918 15.496 26.6478 15.976C25.9278 16.456 25.3638 17.092 24.9558 17.884C24.5478 18.652 24.3438 19.504 24.3438 20.44ZM41.873 0.0999987H45.221V28H41.873V0.0999987ZM51.0488 13.096H54.3968V28H51.0488V13.096ZM50.7968 7.732C50.7968 7.18 51.0008 6.736 51.4088 6.4C51.8408 6.04 52.3088 5.86 52.8128 5.86C53.3168 5.86 53.7728 6.04 54.1808 6.4C54.5888 6.736 54.7928 7.18 54.7928 7.732C54.7928 8.284 54.5888 8.74 54.1808 9.1C53.7728 9.436 53.3168 9.604 52.8128 9.604C52.3088 9.604 51.8408 9.436 51.4088 9.1C51.0008 8.74 50.7968 8.284 50.7968 7.732ZM72.3206 26.596C71.6486 27.148 70.8446 27.58 69.9086 27.892C68.9726 28.204 68.0366 28.36 67.1006 28.36C65.4926 28.36 64.0646 28.036 62.8166 27.388C61.5926 26.74 60.6326 25.828 59.9366 24.652C59.2646 23.476 58.9286 22.096 58.9286 20.512C58.9286 18.928 59.2886 17.56 60.0086 16.408C60.7526 15.232 61.7126 14.32 62.8886 13.672C64.0886 13.024 65.3846 12.7 66.7766 12.7C67.9766 12.7 69.0446 12.868 69.9806 13.204C70.9166 13.54 71.7326 13.996 72.4286 14.572L70.7366 16.768C70.3046 16.456 69.7766 16.168 69.1526 15.904C68.5286 15.616 67.8326 15.472 67.0646 15.472C66.1766 15.472 65.3726 15.7 64.6526 16.156C63.9326 16.588 63.3566 17.188 62.9246 17.956C62.4926 18.7 62.2766 19.552 62.2766 20.512C62.2766 21.448 62.4926 22.3 62.9246 23.068C63.3566 23.836 63.9566 24.448 64.7246 24.904C65.4926 25.36 66.3806 25.588 67.3886 25.588C68.0126 25.588 68.5886 25.492 69.1166 25.3C69.6686 25.108 70.1606 24.844 70.5926 24.508L72.3206 26.596ZM75.3466 20.404C75.3466 18.916 75.6946 17.572 76.3906 16.372C77.1106 15.172 78.0946 14.224 79.3426 13.528C80.5906 12.832 82.0186 12.484 83.6266 12.484C85.2346 12.484 86.6506 12.832 87.8746 13.528C89.0986 14.224 90.0466 15.172 90.7186 16.372C91.4146 17.572 91.7626 18.916 91.7626 20.404C91.7626 21.892 91.4146 23.236 90.7186 24.436C90.0466 25.636 89.0866 26.596 87.8386 27.316C86.6146 28.012 85.1866 28.36 83.5546 28.36C81.9706 28.36 80.5546 28.036 79.3066 27.388C78.0826 26.74 77.1106 25.816 76.3906 24.616C75.6946 23.416 75.3466 22.012 75.3466 20.404ZM78.7306 20.44C78.7306 21.4 78.9346 22.276 79.3426 23.068C79.7746 23.836 80.3506 24.448 81.0706 24.904C81.7906 25.36 82.6066 25.588 83.5186 25.588C84.4546 25.588 85.2826 25.36 86.0026 24.904C86.7226 24.448 87.2866 23.836 87.6946 23.068C88.1266 22.276 88.3426 21.4 88.3426 20.44C88.3426 19.48 88.1266 18.616 87.6946 17.848C87.2866 17.056 86.7226 16.432 86.0026 15.976C85.2826 15.496 84.4546 15.256 83.5186 15.256C82.6066 15.256 81.7786 15.496 81.0346 15.976C80.3146 16.456 79.7506 17.092 79.3426 17.884C78.9346 18.652 78.7306 19.504 78.7306 20.44Z" fill="white"/>
</svg>
