<svg width="100" height="100" viewBox="0 0 100 100" fill="none" xmlns="http://www.w3.org/2000/svg">
<path d="M63.9203 56.9828L74.375 84.6468L74.4062 84.7297C71.2422 85.8687 70.0297 88.2172 65.0375 88.2172C58.439 88.2172 58.439 84.125 51.8453 84.125C45.2484 84.125 45.2484 88.2172 38.6594 88.2172C32.0625 88.2172 32.0625 84.125 25.4672 84.125" stroke="#0B2A34" stroke-width="2.7" stroke-miterlimit="10" stroke-linecap="round" stroke-linejoin="round"/>
<path d="M61.2844 50H52.8641" stroke="#0B2A34" stroke-width="2.7" stroke-miterlimit="10" stroke-linecap="round" stroke-linejoin="round"/>
<path d="M47.0891 50H45.7438" stroke="#0B2A34" stroke-width="2.7" stroke-miterlimit="10" stroke-linecap="round" stroke-linejoin="round"/>
<path d="M80.6141 35.8031C79.5187 37.7094 78.0656 36.8734 76.9672 38.7781C75.8719 40.6844 77.325 41.5203 76.225 43.4281C75.1266 45.3375 73.6734 44.5015 72.5781 46.4062" stroke="#0B2A34" stroke-width="2.7" stroke-miterlimit="10" stroke-linecap="round" stroke-linejoin="round"/>
<path d="M23.4375 56.1797C24.2047 56.1797 24.825 56.7984 24.825 57.5656C24.825 58.3344 24.2047 58.9547 23.4375 58.9547C22.6703 58.9547 22.05 58.3359 22.05 57.5656" stroke="#0B2A34" stroke-width="2.7" stroke-miterlimit="10" stroke-linecap="round" stroke-linejoin="round"/>
<path d="M19.1781 29.0266L13.9203 25.7281" stroke="#0B2A34" stroke-width="2.7" stroke-miterlimit="10" stroke-linecap="round" stroke-linejoin="round"/>
<path d="M55.861 17.1656L59.1563 11.9078" stroke="#0B2A34" stroke-width="2.7" stroke-miterlimit="10" stroke-linecap="round" stroke-linejoin="round"/>
<path d="M37.9859 31.8578C37.9859 33.8797 37.2062 35.6937 35.9719 36.9359" stroke="#0B2A34" stroke-width="2.7" stroke-miterlimit="10" stroke-linecap="round" stroke-linejoin="round"/>
<path d="M61.8875 31.8578C61.8875 33.8797 62.6656 35.6937 63.9016 36.9359" stroke="#0B2A34" stroke-width="2.7" stroke-miterlimit="10" stroke-linecap="round" stroke-linejoin="round"/>
<path d="M60.3219 23.3797C58.4141 27.6578 54.5109 30.589 50.0062 30.589C45.4812 30.589 41.5641 27.6312 39.6672 23.3265" stroke="#0B2A34" stroke-width="2.7" stroke-miterlimit="10" stroke-linecap="round" stroke-linejoin="round"/>
<path d="M39.6735 23.3359L37.986 24.2969" stroke="#0B2A34" stroke-width="2.7" stroke-miterlimit="10" stroke-linecap="round" stroke-linejoin="round"/>
<path d="M60.3281 23.3859L61.8875 24.2969" stroke="#0B2A34" stroke-width="2.7" stroke-miterlimit="10" stroke-linecap="round" stroke-linejoin="round"/>
<path d="M37.986 31.8578V24.2969" stroke="#0B2A34" stroke-width="2.7" stroke-miterlimit="10" stroke-linecap="round" stroke-linejoin="round"/>
<path d="M61.8875 31.8578V24.2969" stroke="#0B2A34" stroke-width="2.7" stroke-miterlimit="10" stroke-linecap="round" stroke-linejoin="round"/>
<path d="M60.3281 23.3797C60.3062 30.7391 55.6891 36.6938 49.9984 36.6938C47.6859 36.6938 45.5516 35.7109 43.8312 34.0516" stroke="#0B2A34" stroke-width="2.7" stroke-miterlimit="10" stroke-linecap="round" stroke-linejoin="round"/>
<path d="M31.7047 85.95L35.8172 72.8094" stroke="#0B2A34" stroke-width="2.7" stroke-miterlimit="10" stroke-linecap="round" stroke-linejoin="round"/>
<path d="M45.2859 85.525L46.5469 62.3328" stroke="#0B2A34" stroke-width="2.7" stroke-miterlimit="10" stroke-linecap="round" stroke-linejoin="round"/>
<path d="M59.5907 86.8562L57.9 73.9281" stroke="#0B2A34" stroke-width="2.7" stroke-miterlimit="10" stroke-linecap="round" stroke-linejoin="round"/>
<path d="M38.6203 49.9875L25.4656 84.125" stroke="#0B2A34" stroke-width="2.7" stroke-miterlimit="10" stroke-linecap="round" stroke-linejoin="round"/>
<path d="M36.0047 36.9219C37.6047 40.0672 38.6203 44.7531 38.6203 49.9859" stroke="#0B2A34" stroke-width="2.7" stroke-miterlimit="10" stroke-linecap="round" stroke-linejoin="round"/>
<path d="M63.9016 36.9359C62.3 40.0812 61.2828 44.7672 61.2828 50" stroke="#0B2A34" stroke-width="2.7" stroke-miterlimit="10" stroke-linecap="round" stroke-linejoin="round"/>
</svg>
