<svg width="26" height="26" viewBox="0 0 26 26" fill="none" xmlns="http://www.w3.org/2000/svg">
<path d="M12.9999 24.2706C6.81993 24.2706 1.79297 19.2436 1.79297 13.0637C1.79297 6.88373 6.81993 1.85677 12.9999 1.85677C19.1798 1.85677 24.2068 6.88373 24.2068 13.0637C24.2068 19.2436 19.1798 24.2706 12.9999 24.2706ZM12.9999 3.64987C7.80883 3.64987 3.58607 7.87263 3.58607 13.0637C3.58607 18.2547 7.80883 22.4775 12.9999 22.4775C18.1909 22.4775 22.4137 18.2538 22.4137 13.0637C22.4137 7.87353 18.1909 3.64987 12.9999 3.64987Z" fill="white"/>
<path d="M13.0001 19.3395C12.7623 19.3395 12.5342 19.2451 12.3661 19.0769C12.198 18.9088 12.1035 18.6807 12.1035 18.443V7.68435C12.1035 7.44657 12.198 7.21853 12.3661 7.05039C12.5342 6.88225 12.7623 6.7878 13.0001 6.7878C13.2378 6.7878 13.4659 6.88225 13.634 7.05039C13.8022 7.21853 13.8966 7.44657 13.8966 7.68435V18.443C13.8966 18.6807 13.8022 18.9088 13.634 19.0769C13.4659 19.2451 13.2378 19.3395 13.0001 19.3395Z" fill="white"/>
<path d="M18.3798 13.9602H7.62116C7.38338 13.9602 7.15534 13.8657 6.9872 13.6976C6.81907 13.5295 6.72461 13.3014 6.72461 13.0637C6.72461 12.8259 6.81907 12.5978 6.9872 12.4297C7.15534 12.2616 7.38338 12.1671 7.62116 12.1671H18.3798C18.6176 12.1671 18.8456 12.2616 19.0137 12.4297C19.1819 12.5978 19.2763 12.8259 19.2763 13.0637C19.2763 13.3014 19.1819 13.5295 19.0137 13.6976C18.8456 13.8657 18.6176 13.9602 18.3798 13.9602Z" fill="white"/>
</svg>
