<svg width="101" height="101" viewBox="0 0 101 101" fill="none" xmlns="http://www.w3.org/2000/svg">
<path d="M69.3 8.59998H28C22.7 8.59998 18.3 12.9 18.3 18.2V84.4C18.3 89.7 22.6 94 28 94H69.3C74.6 94 79 89.7 79 84.4V18.2C79 12.9 74.7 8.59998 69.3 8.59998ZM76 84.4C76 88.1 73 91 69.3 91H28C24.3 91 21.3 88 21.3 84.4V18.2C21.3 14.5 24.3 11.6 28 11.6H69.3C73 11.6 76 14.6 76 18.2V84.4Z" fill="#0B2A34"/>
<path d="M60.9 18.1H36.2C35.4 18.1 34.7 18.8 34.7 19.6C34.7 20.4 35.4 21.1 36.2 21.1H60.9C61.7 21.1 62.4 20.4 62.4 19.6C62.4 18.8 61.7 18.1 60.9 18.1Z" fill="#0B2A34"/>
<path d="M48.6 75.4C45.8 75.4 43.6 77.7 43.6 80.4C43.6 81.7 44.1 83 45.1 83.9C46 84.8 47.3 85.3 48.6 85.3C51.4 85.3 53.6 83 53.6 80.3C53.6 77.6 51.4 75.4 48.6 75.4ZM48.7 82.4C48.2 82.4 47.7 82.2 47.3 81.8C46.9 81.4 46.7 80.9 46.7 80.4C46.7 79.3 47.6 78.4 48.7 78.4C49.8 78.4 50.7 79.3 50.7 80.4C50.7 81.5 49.8 82.4 48.7 82.4Z" fill="#0B2A34"/>
</svg>
