<svg width="100" height="100" viewBox="0 0 100 100" fill="none" xmlns="http://www.w3.org/2000/svg">
<path d="M75.2153 45.6667H25.242C19.6777 45.6667 14.6667 49.7564 14.6667 55.3207V69.829C14.6667 70.4967 15.708 71.3334 16.3757 71.3334H84.0817C84.7497 71.3334 85 70.4967 85 69.829V55.3207C85 49.7564 80.7797 45.6667 75.2153 45.6667Z" stroke="#0B2A34" stroke-width="6" stroke-miterlimit="10" stroke-linecap="round" stroke-linejoin="round"/>
<path d="M85 58.8757C85 58.208 84.4587 57.6667 83.791 57.6667H15.8757C15.208 57.6667 14.6667 58.208 14.6667 58.8757V70.1244C14.6667 70.792 15.208 71.3334 15.8757 71.3334H83.791C84.4587 71.3334 85 70.792 85 70.1244V58.8757V58.8757Z" stroke="#0B2A34" stroke-width="6" stroke-miterlimit="10" stroke-linecap="round" stroke-linejoin="round"/>
<path d="M79 42V23.8857C79 23.218 78.7043 23 78.0363 23H22.421C21.7533 23 21 23.218 21 23.8857V42" stroke="#0B2A34" stroke-width="6" stroke-miterlimit="10" stroke-linecap="round" stroke-linejoin="round"/>
<path d="M14.6667 65V77" stroke="#0B2A34" stroke-width="6" stroke-miterlimit="10" stroke-linecap="round" stroke-linejoin="round"/>
<path d="M85 65V77" stroke="#0B2A34" stroke-width="6" stroke-miterlimit="10" stroke-linecap="round" stroke-linejoin="round"/>
<path d="M66.513 41.9693C66.513 38.9736 67.1554 35.819 67.1554 35.819C67.1554 35.2873 66.724 34.8036 66.192 34.8036C66.192 34.8036 63.1967 35.419 60.2547 35.419C57.3127 35.419 53.9967 34.764 53.9967 34.764C53.4644 34.764 53.033 35.1883 53.033 35.7203C53.033 35.7203 53.6754 38.763 53.6754 41.9726" stroke="#0B2A34" stroke-width="6" stroke-miterlimit="10" stroke-linecap="round" stroke-linejoin="round"/>
<path d="M46.782 41.9693C46.782 38.9736 47.424 35.819 47.424 35.819C47.424 35.2873 46.9927 34.8036 46.461 34.8036C46.461 34.8036 43.4654 35.419 40.5237 35.419C37.5814 35.419 34.2654 34.764 34.2654 34.764C33.733 34.764 33.3024 35.1883 33.3024 35.7203C33.3024 35.7203 33.944 38.763 33.944 41.9726" stroke="#0B2A34" stroke-width="6" stroke-miterlimit="10" stroke-linecap="round" stroke-linejoin="round"/>
</svg>
