<svg width="80" height="80" viewBox="0 0 80 80" fill="none" xmlns="http://www.w3.org/2000/svg">
<path d="M71.6667 80H48.3334C47.4117 80 46.6667 79.2533 46.6667 78.3333V1.66667C46.6667 0.746667 47.4117 0 48.3334 0H71.6667C72.5884 0 73.3334 0.746667 73.3334 1.66667V78.3333C73.3334 79.2533 72.5884 80 71.6667 80ZM50 76.6667H70V3.33333H50V76.6667Z" fill="#0B2A34"/>
<path d="M56.6666 13.3333H48.3333V16.6666H56.6666V13.3333Z" fill="#0B2A34"/>
<path d="M56.6666 23.3333H48.3333V26.6666H56.6666V23.3333Z" fill="#0B2A34"/>
<path d="M56.6666 33.3333H48.3333V36.6666H56.6666V33.3333Z" fill="#0B2A34"/>
<path d="M56.6666 43.3333H48.3333V46.6666H56.6666V43.3333Z" fill="#0B2A34"/>
<path d="M56.6666 53.3333H48.3333V56.6666H56.6666V53.3333Z" fill="#0B2A34"/>
<path d="M56.6666 63.3333H48.3333V66.6666H56.6666V63.3333Z" fill="#0B2A34"/>
<path d="M25 76.6666H18.3333C13.7383 76.6666 10 72.9283 10 68.3333V20C10 19.6716 10.0983 19.3483 10.28 19.075L20.28 4.07497C20.8983 3.14664 22.435 3.14664 23.0533 4.07497L33.0533 19.075C33.235 19.3483 33.3333 19.6716 33.3333 20V68.3333C33.3333 72.9283 29.595 76.6666 25 76.6666ZM13.3333 20.505V68.3333C13.3333 71.09 15.5767 73.3333 18.3333 73.3333H25C27.7567 73.3333 30 71.09 30 68.3333V20.505L21.6667 8.00497L13.3333 20.505Z" fill="#0B2A34"/>
<path d="M31.6667 66.6666H11.6667C10.745 66.6666 10 65.92 10 65C10 64.08 10.745 63.3333 11.6667 63.3333H31.6667C32.5883 63.3333 33.3333 64.08 33.3333 65C33.3333 65.92 32.5883 66.6666 31.6667 66.6666Z" fill="#0B2A34"/>
<path d="M31.6667 60H11.6667C10.745 60 10 59.2534 10 58.3334C10 57.4134 10.745 56.6667 11.6667 56.6667H31.6667C32.5883 56.6667 33.3333 57.4134 33.3333 58.3334C33.3333 59.2534 32.5883 60 31.6667 60Z" fill="#0B2A34"/>
<path d="M18.3334 60C17.4117 60 16.6667 59.2533 16.6667 58.3333V26.6667C16.6667 25.7467 17.4117 25 18.3334 25C19.255 25 20 25.7467 20 26.6667V58.3333C20 59.2533 19.255 60 18.3334 60Z" fill="#0B2A34"/>
<path d="M25 60C24.0783 60 23.3333 59.2533 23.3333 58.3333V26.6667C23.3333 25.7467 24.0783 25 25 25C25.9216 25 26.6666 25.7467 26.6666 26.6667V58.3333C26.6666 59.2533 25.9216 60 25 60Z" fill="#0B2A34"/>
<path d="M26.6667 11.6667H16.6667V15H26.6667V11.6667Z" fill="#0B2A34"/>
<path d="M16.6667 28.3333C12.99 28.3333 10 25.3433 10 21.6667C10 20.7467 10.745 20 11.6667 20C12.5883 20 13.3333 20.7467 13.3333 21.6667C13.3333 23.505 14.8283 25 16.6667 25C18.505 25 20 23.505 20 21.6667C20 20.7467 20.745 20 21.6667 20C22.5883 20 23.3333 20.7467 23.3333 21.6667C23.3333 25.3433 20.3433 28.3333 16.6667 28.3333Z" fill="#0B2A34"/>
<path d="M26.6667 28.3333C22.99 28.3333 20 25.3433 20 21.6667C20 20.7467 20.745 20 21.6667 20C22.5883 20 23.3333 20.7467 23.3333 21.6667C23.3333 23.505 24.8283 25 26.6667 25C28.505 25 30 23.505 30 21.6667C30 20.7467 30.745 20 31.6667 20C32.5883 20 33.3333 20.7467 33.3333 21.6667C33.3333 25.3433 30.3433 28.3333 26.6667 28.3333Z" fill="#0B2A34"/>
</svg>
